<svg xmlns="http://www.w3.org/2000/svg" xmlns:xlink="http://www.w3.org/1999/xlink" viewBox="0 0 1920 300"><defs><style>.a{fill:none;}.b{clip-path:url(#a);}.c{fill:url(#b);}</style><clipPath id="a"><rect class="a" width="1920" height="300"/></clipPath><radialGradient id="b" cx="959.999" cy="150" r="1201.922" gradientTransform="translate(-1 -131.25) scale(1.001 1.875)" gradientUnits="userSpaceOnUse"><stop offset="0" stop-color="#003f66"/><stop offset="1" stop-color="#00101a"/></radialGradient></defs><title>Asset 2</title><g class="b"><rect class="c" width="1920" height="300"/><path d="M278.328,140.261a23.572,23.572,0,1,0-23.572,23.572A23.6,23.6,0,0,0,278.328,140.261Zm-45.579,0a22.007,22.007,0,1,1,22.007,22.007A22.032,22.032,0,0,1,232.749,140.261Z"/><path d="M261.656,148.267a.782.782,0,0,0,1.106-1.106l-6.9-6.9,6.9-6.9a.782.782,0,0,0-1.106-1.106l-6.9,6.9-6.9-6.9a.782.782,0,0,0-1.106,1.106l6.9,6.9-6.9,6.9a.782.782,0,0,0,1.106,1.106l6.9-6.9Z"/><path d="M897.825,204.823A23.572,23.572,0,1,0,921.4,228.4,23.6,23.6,0,0,0,897.825,204.823Zm0,45.58A22.008,22.008,0,1,1,919.832,228.4,22.032,22.032,0,0,1,897.825,250.4Z"/><path d="M901.209,238.593c-1.392,1.161-2.689,1.541-3.556,1.041a1.8,1.8,0,0,1-.77-1.9c.395-2.3,2.39-11.956,2.411-12.058a2.584,2.584,0,0,0-.6-2.475,2.027,2.027,0,0,0-1.984-.383l-1.3.377a.782.782,0,0,0,.434,1.5l1.3-.377c.128-.037.364-.082.489.032s.236.454.124,1.012c-.082.4-2.021,9.777-2.421,12.105a3.328,3.328,0,0,0,1.532,3.517,3.267,3.267,0,0,0,1.636.417,5.85,5.85,0,0,0,3.7-1.611.782.782,0,0,0-1-1.2Z"/><path d="M898.835,219.823a2.2,2.2,0,1,0-2.2-2.2A2.2,2.2,0,0,0,898.835,219.823Z"/><path d="M1774.751,228.1l28.385,19.683.016.011c2.01,1.388,4.019,1.725,5.659.949s2.657-2.547,2.86-4.987l2.853-34.424c.2-2.445-.511-4.362-2.009-5.4s-3.534-1.024-5.746.02l-31.238,14.741c-2.216,1.045-3.519,2.619-3.669,4.43S1772.738,226.7,1774.751,228.1Zm1.447-7.989,31.239-14.741c1.686-.8,3.174-.849,4.189-.148s1.493,2.117,1.339,3.981l-2.854,34.424c-.153,1.86-.853,3.175-1.969,3.7s-2.57.235-4.1-.822l-28.4-19.692c-1.535-1.065-2.324-2.329-2.222-3.559S1774.509,220.906,1776.2,220.109Z"/><path d="M1796.51,227a.781.781,0,0,0,1.088-.2l7.528-10.9a.782.782,0,1,0-1.287-.889l-7.528,10.9A.781.781,0,0,0,1796.51,227Z"/><path d="M1793.156,231.856a.781.781,0,0,0,1.088-.2l.4-.581a.783.783,0,0,0-1.288-.889l-.4.581A.783.783,0,0,0,1793.156,231.856Z"/><path d="M518.279,221.366a.782.782,0,0,0-.093,1.562,45.681,45.681,0,0,0,6.117-.052,37.86,37.86,0,0,0,15.526-4.275.782.782,0,0,0-.774-1.36,36.289,36.289,0,0,1-14.868,4.075A44.062,44.062,0,0,1,518.279,221.366Z"/><path d="M513.249,184.55a7.54,7.54,0,0,0,1.809,4.35,13.7,13.7,0,0,0-9.179,13.746c.307,9.962-3.062,14.007-5.769,17.258-2.119,2.544-3.95,4.742-3.548,8.742.485,4.821,10.717,7.02,21.742,6.987a6.675,6.675,0,0,0,13.181-1.072c8.734-1.4,15.64-4.017,18.129-7.043a3.861,3.861,0,0,0,1.014-2.949c-.464-3.866-2.728-5.89-5.125-8.032-3.378-3.021-7.208-6.444-7.925-16.213a13.6,13.6,0,0,0-10.628-12.166,7.5,7.5,0,1,0-13.7-3.608ZM525.2,239.285a5.2,5.2,0,0,1-5.276-3.674c1.443-.032,2.892-.1,4.327-.207,1.932-.143,3.816-.346,5.631-.6A5.209,5.209,0,0,1,525.2,239.285Zm10.819-38.846c.764,10.4,5.022,14.205,8.444,17.264,2.358,2.108,4.22,3.773,4.614,7.053a2.38,2.38,0,0,1-.669,1.768c-2.846,3.459-12.827,6.469-24.273,7.321-15.126,1.124-25.663-1.862-26.014-5.356-.336-3.346,1.221-5.216,3.193-7.584,2.876-3.454,6.456-7.752,6.131-18.307-.21-6.8,4.5-12.3,10.95-12.776l4.909-.364a11.978,11.978,0,0,1,12.715,10.981Zm-15.735-22.373a5.94,5.94,0,0,1,4.9,9.833,13.337,13.337,0,0,0-2,0l-4.909.366a13.459,13.459,0,0,0-1.464.19,5.94,5.94,0,0,1,3.469-10.387Z"/><path d="M520.981,187.48a3.7,3.7,0,1,0-3.957-3.417A3.7,3.7,0,0,0,520.981,187.48Zm-.432-5.82a2.135,2.135,0,1,1-1.965,2.288A2.135,2.135,0,0,1,520.549,181.66Z"/><path d="M1858.847,87.312c-.239-.669-.466-1.35-.681-2.034a69.527,69.527,0,0,1-2.354-9.863,67.412,67.412,0,0,1-.8-15.332,2.92,2.92,0,0,0-.18-1.145,2.833,2.833,0,0,0-.59-.994,67.292,67.292,0,0,1-9.156-12.324,69.036,69.036,0,0,1-5.245-11.095,2.169,2.169,0,0,0-2.5-1.463c-.446.118-.9.243-1.13.3-8.812,2.472-21.4,7.22-31.343,15.781-10.173,8.765-15.413,19.594-15.574,32.2a3.031,3.031,0,0,0,.2,1.04,3.091,3.091,0,0,0,.618,1.064c.586.629,1.181,1.243,1.787,1.83a44.547,44.547,0,0,0,30.948,13.086c10.044.259,21.448-2.378,33.9-7.841.219-.094.657-.29,1.079-.481A2.172,2.172,0,0,0,1858.847,87.312Zm-1.662,1.3c-.419.188-.849.383-1.068.477-25.942,11.374-46.756,10.087-61.947-3.813q-1.5-1.361-2.917-2.894a1.6,1.6,0,0,1-.294-.532,1.443,1.443,0,0,1-.1-.489c.379-29.379,28.84-41.738,45.774-46.49.223-.063.673-.184,1.111-.3.2-.051.508.149.634.489a69.84,69.84,0,0,0,5.362,11.346,67.873,67.873,0,0,0,9.374,12.617,1.525,1.525,0,0,1,.341.95,67.889,67.889,0,0,0,.817,15.7,71.387,71.387,0,0,0,2.253,9.609c.266.864.551,1.717.848,2.558A.646.646,0,0,1,1857.185,88.614Z"/><path d="M1833.824,75.315l-10.61-4.993,4.993-10.611a.782.782,0,0,0-1.415-.666l-4.993,10.61-10.61-4.993a.782.782,0,1,0-.667,1.415l10.611,4.994-4.994,10.61a.782.782,0,1,0,1.416.666l4.993-10.61,10.61,4.993a.782.782,0,1,0,.666-1.415Z"/><path d="M1848.811,74.382a52.384,52.384,0,0,1-.637-11.839,2.9,2.9,0,0,0-.184-1.142,2.935,2.935,0,0,0-.583-.993,52.043,52.043,0,0,1-7.055-9.531,54.221,54.221,0,0,1-4.017-8.436,2.268,2.268,0,0,0-2.695-1.4c-.6.164-1.251.348-1.631.457-6.758,2-16.406,5.793-23.982,12.488-7.712,6.817-11.713,15.191-11.889,24.894a3.084,3.084,0,0,0,.191,1.044,3.2,3.2,0,0,0,.626,1.068,39.677,39.677,0,0,0,4.7,4.29c11.948,9.238,27.7,9.766,46.92,1.549.306-.129.834-.36,1.334-.587a2.172,2.172,0,0,0,1.037-.962,2.271,2.271,0,0,0,.148-1.83A54.635,54.635,0,0,1,1848.811,74.382Zm-.849,11.01c-17.72,7.571-32.355,7.524-43.627-.114a36.724,36.724,0,0,1-6.238-5.362,1.547,1.547,0,0,1-.293-.528,1.4,1.4,0,0,1-.1-.485c.411-22.414,21.949-32.117,34.749-35.907.372-.109,1.017-.285,1.6-.45a.709.709,0,0,1,.813.438A55.728,55.728,0,0,0,1839,51.667a53.773,53.773,0,0,0,7.267,9.817,1.33,1.33,0,0,1,.25.449,1.38,1.38,0,0,1,.094.505,53.574,53.574,0,0,0,.657,12.2,55.332,55.332,0,0,0,2.351,9.328.7.7,0,0,1-.348.849c-.368.164-.755.336-1.048.465Z"/><path d="M764.909,80.742a16.974,16.974,0,0,0,1.538,32.036,6.732,6.732,0,0,1,4.073,3.289l.762,1.9a4.167,4.167,0,0,0,5.413,2.313l7.043-2.829a4.168,4.168,0,0,0,2.312-5.414l-.762-1.9a6.734,6.734,0,0,1,.666-5.193,16.973,16.973,0,0,0-21.045-24.2ZM784.6,104.166a8.3,8.3,0,0,0-.76,6.554l.761,1.9A2.6,2.6,0,0,1,783.156,116l-7.044,2.828a2.6,2.6,0,0,1-3.379-1.443l-.762-1.9a8.3,8.3,0,0,0-5.082-4.207,15.41,15.41,0,1,1,17.708-7.111Z"/><path d="M784.946,118.365l-8.488,3.409a.782.782,0,1,0,.584,1.451l8.487-3.408a.782.782,0,1,0-.583-1.452Z"/><path d="M785.967,120.908l-8.487,3.408a.782.782,0,1,0,.583,1.452l8.487-3.408a.782.782,0,1,0-.583-1.452Z"/><path d="M785.555,123.894l-5.713,2.294a.782.782,0,1,0,.583,1.452l5.713-2.3a.782.782,0,0,0-.583-1.451Z"/><path d="M767.591,84.6a.783.783,0,0,0,.39,1.516,12.1,12.1,0,0,1,12.818,4.7.784.784,0,0,0,.93.274.876.876,0,0,0,.161-.088.782.782,0,0,0,.186-1.09A13.672,13.672,0,0,0,767.591,84.6Z"/><path d="M794.2,82.866l-5.586,2.85a.782.782,0,0,0,.646,1.423.617.617,0,0,0,.065-.029l5.586-2.849a.783.783,0,0,0-.711-1.395Z"/><path d="M778.345,70.454,776.3,76.488a.782.782,0,0,0,1.482.5l2.043-6.034a.782.782,0,1,0-1.481-.5Z"/><path d="M763.585,78.156a.783.783,0,0,0,.435-1.018l-2.335-5.814a.783.783,0,0,0-1.452.584l2.335,5.813A.782.782,0,0,0,763.585,78.156Z"/><path d="M753.179,87.165a.783.783,0,0,0,.069-1.42L747.6,82.8a.782.782,0,1,0-.723,1.387l5.65,2.945A.78.78,0,0,0,753.179,87.165Z"/><path d="M750.742,100.923l-6.006,1.8a.783.783,0,0,0,.45,1.5l6.006-1.805c.022-.008.045-.015.067-.024a.782.782,0,0,0-.517-1.475Z"/><path d="M412.912,55.92a16.973,16.973,0,0,0-7.606,31.158,6.734,6.734,0,0,1,2.974,4.31l.193,2.034a4.166,4.166,0,0,0,4.536,3.751l7.556-.716a4.166,4.166,0,0,0,3.751-4.537l-.192-2.035a6.734,6.734,0,0,1,2.11-4.791A16.973,16.973,0,0,0,412.912,55.92Zm12.242,28.044a8.3,8.3,0,0,0-2.588,6.069l.193,2.035a2.6,2.6,0,0,1-2.341,2.831l-7.556.717a2.6,2.6,0,0,1-2.832-2.342l-.193-2.034a8.3,8.3,0,0,0-3.682-5.475,15.41,15.41,0,1,1,19-1.8Z"/><path d="M421.464,97.68l-9.106.864a.781.781,0,1,0,.147,1.556l9.106-.862a.782.782,0,1,0-.147-1.558Z"/><path d="M421.722,100.408l-9.1.863a.782.782,0,1,0,.147,1.557l9.106-.863a.782.782,0,0,0-.148-1.557Z"/><path d="M420.48,103.154l-6.129.581a.782.782,0,1,0,.148,1.557l6.129-.58a.783.783,0,1,0-.148-1.558Z"/><path d="M414.39,60.38a.783.783,0,1,0-.056,1.564,12.1,12.1,0,0,1,10.96,8.144.783.783,0,0,0,.814.526.82.82,0,0,0,.179-.039.783.783,0,0,0,.488-.992A13.674,13.674,0,0,0,414.39,60.38Z"/><path d="M440.394,66.258l-6.165,1.15a.782.782,0,0,0,.217,1.548l.07-.01,6.164-1.15a.782.782,0,1,0-.286-1.538Z"/><path d="M428.712,49.862l-3.67,5.207a.782.782,0,1,0,1.278.9l3.67-5.207a.782.782,0,0,0-1.278-.9Z"/><path d="M412.374,53.065a.783.783,0,0,0,.706-.853l-.592-6.237a.782.782,0,1,0-1.557.148l.591,6.237A.782.782,0,0,0,412.374,53.065Z"/><path d="M399.842,58.756a.783.783,0,0,0,.469-1.342l-4.584-4.425a.782.782,0,1,0-1.086,1.125l4.583,4.426A.784.784,0,0,0,399.842,58.756Z"/><path d="M393.605,71.259l-6.271.028a.783.783,0,0,0,.007,1.565l6.271-.029c.024,0,.048,0,.07,0a.782.782,0,0,0-.077-1.561Z"/><path d="M123.527,241.612a3.093,3.093,0,0,0-.817-1.842L73.861,190.656a3.528,3.528,0,0,0-4.979-.016L61.991,197.5l-30.166,30a3.525,3.525,0,0,0-.011,4.979l30.177,30.342v0l14.3,14.377-.912,10.079a2.687,2.687,0,0,0,2.437,2.917l2,.184a2.694,2.694,0,0,0,2.921-2.437l.352-3.91,3.422,3.441a3.524,3.524,0,0,0,4.979.012l31.961-31.789a2.736,2.736,0,0,0,.739-1.928ZM81.171,287.794a1.148,1.148,0,0,1-1.221,1.017l-1.994-.181a1.124,1.124,0,0,1-1.021-1.219l1.232-13.619a1.117,1.117,0,0,1,1.22-1.016l2,.179a1.127,1.127,0,0,1,1.021,1.22Zm9.206-1.424a1.96,1.96,0,0,1-2.765-.008l-4.345-4.372.692-7.674a2.691,2.691,0,0,0-2.436-2.921l-.329-.028.207-2.3a15.055,15.055,0,1,0-1.556-.149l-.211,2.307-.106-.011a2.694,2.694,0,0,0-2.921,2.436l-.137,1.506L61.991,260.6v0L32.92,231.373a1.962,1.962,0,0,1,.008-2.765L61.991,199.7l7.994-7.951a1.96,1.96,0,0,1,2.765.008l48.407,48.668-4.509,4.486a3.524,3.524,0,0,0-.016,4.979l5.182,5.209Zm-9.5-18.9a13.52,13.52,0,1,1,10.752-3.883A13.435,13.435,0,0,1,80.873,267.468Zm36.87-18.679a1.961,1.961,0,0,1,.007-2.765l4.224-4.2.642,11.866Z"/><path d="M106.306,235.427l-8.5,8.457a.782.782,0,0,0,1.1,1.109l8.5-8.456a.782.782,0,0,0-1.1-1.11Z"/><path d="M101.037,229.021a.782.782,0,0,0-1.106,0l-8.99,8.941a.782.782,0,0,0,1.1,1.109l8.989-8.94A.783.783,0,0,0,101.037,229.021Z"/><path d="M94.652,222.6a.783.783,0,0,0-1.106,0L80.8,235.277a.782.782,0,0,0,1.1,1.109l12.748-12.679A.782.782,0,0,0,94.652,222.6Z"/><path d="M88.269,216.183a.784.784,0,0,0-1.107,0L61.991,241.214l-5.127,5.1a.782.782,0,1,0,1.1,1.11l4.024-4L88.265,217.29A.788.788,0,0,0,88.269,216.183Z"/><path d="M81.89,210.879a.782.782,0,0,0-1.1-1.11l-18.8,18.694L50.52,239.872a.781.781,0,1,0,1.1,1.107l10.368-10.31Z"/><path d="M76.1,205.056a.783.783,0,0,0-1.1-1.111l-13,12.934L44.728,234.048a.781.781,0,0,0,1.1,1.107l16.16-16.07Z"/><path d="M93.608,255.047a11.57,11.57,0,1,0-3.36,7.157A11.494,11.494,0,0,0,93.608,255.047Zm-12.422,8.921a10.008,10.008,0,1,1,7.959-2.875A10.012,10.012,0,0,1,81.186,263.968Z"/><path d="M79.5,246.116a8.3,8.3,0,0,0-5.682,7.141c-.017.184-.027.368-.031.55a.782.782,0,1,0,1.563.034c0-.146.012-.292.026-.441a6.735,6.735,0,0,1,4.611-5.8.782.782,0,1,0-.487-1.486Z"/><path d="M706.387,191.5l-12.139,18.479a.782.782,0,1,0,1.307.86l12.14-18.48a.782.782,0,0,0-1.308-.859Z"/><path d="M698.586,186.371l-12.139,18.48a.782.782,0,0,0,1.308.858l12.139-18.48a.782.782,0,1,0-1.308-.858Z"/><path d="M690.776,181.24l-12.14,18.479a.783.783,0,0,0,1.308.86l12.14-18.481a.782.782,0,0,0-1.308-.858Z"/><path d="M682.975,176.115,670.836,194.6a.782.782,0,1,0,1.308.858l12.139-18.48a.782.782,0,0,0-1.308-.858Z"/><path d="M692.041,213.332l-.553.843a.782.782,0,1,0,1.307.86l.554-.844a.782.782,0,0,0-1.308-.859Z"/><path d="M684.241,208.207l-.554.845a.782.782,0,0,0,1.308.858l.554-.843a.783.783,0,0,0-1.308-.86Z"/><path d="M676.431,203.077l-.554.843a.782.782,0,1,0,1.308.859l.554-.843a.782.782,0,1,0-1.308-.859Z"/><path d="M668.63,197.952l-.554.844a.782.782,0,1,0,1.308.858l.554-.842a.783.783,0,0,0-1.308-.86Z"/><path d="M677.573,156.8c-.061.093-3.029,4.623-6.628,10.1-9,13.682-16.446,25.018-16.525,25.145a6.318,6.318,0,0,0,1.812,8.679l41.112,27.007-3.315,5.047a2.891,2.891,0,0,0,.731,4.015l1.7,1.117c4.441,2.917,6.926.805,8.054-.828h0l23.427-35.663-.013-.009a4.648,4.648,0,0,0,.486-4.251,7.494,7.494,0,0,0-3.02-3.3l-40.045-26.307c1.349-2.067,4.293-6.529,4.616-7.021a2.218,2.218,0,0,0-.588-3.488L686.269,155A6.287,6.287,0,0,0,677.573,156.8ZM703.3,236.088c-.875,1.331-2.448,2.835-5.98.515l-1.7-1.117a1.328,1.328,0,0,1-.282-1.849l20.755-31.595a1.329,1.329,0,0,1,1.81-.474l1.7,1.116a6.882,6.882,0,0,0,4.719,1.406ZM679.373,165.5l45.165,29.669a6.028,6.028,0,0,1,2.425,2.573,3.249,3.249,0,0,1-.523,3.119h0c-.876,1.332-2.447,2.835-5.98.515l-1.7-1.116a2.89,2.89,0,0,0-3.975.924L698.2,226.425l-41.112-27.007a4.761,4.761,0,0,1-1.345-6.541c.171-.269,10-15.222,16.506-25.117l4.36-6.634A6.264,6.264,0,0,0,679.373,165.5Zm9.173-7.13a1.067,1.067,0,0,1,.4.376c.078.189-.027.527-.292.93-.323.493-4.1,6.225-4.616,7.02l-3.811-2.5a4.715,4.715,0,1,1,5.178-7.882Z"/><path d="M165.487,27.024a.821.821,0,0,1,.508.313l1.889,3.629c.7,1.342,1.7,1.424,2.347,1.088a2.3,2.3,0,0,0,1.013-1.268L173,26.308a1.234,1.234,0,0,1,.575-.551,20.8,20.8,0,0,0,2.178-.982c7.975-4.153,11.835-12.578,8.6-18.781s-12.346-7.861-20.321-3.707-11.835,12.578-8.6,18.78C157.227,24.521,160.892,26.692,165.487,27.024Zm-.731-23.349c7.208-3.758,15.378-2.393,18.209,3.043s-.731,12.914-7.939,16.669a19.5,19.5,0,0,1-2.018.911,2.835,2.835,0,0,0-1.467,1.439l-1.752,4.478a.277.277,0,0,1-.516.028l-1.893-3.63a2.324,2.324,0,0,0-1.78-1.15c-4.04-.293-7.243-2.158-8.784-5.119C153.985,14.908,157.544,7.43,164.756,3.675Z"/><path d="M170.472,14.648a.954.954,0,1,0-1.287-.406A.954.954,0,0,0,170.472,14.648Z"/><path d="M166.632,16.648a.954.954,0,1,0-1.287-.405A.955.955,0,0,0,166.632,16.648Z"/><path d="M174.312,12.647a.954.954,0,1,0-1.287-.4A.954.954,0,0,0,174.312,12.647Z"/><path d="M195.766,55.926a22.886,22.886,0,0,0-7.361-2.639c-3.613-.744-7.254-.912-8.815-.286a5.094,5.094,0,0,0-.54.25c-3.2,1.666-4.145,5.828-3.668,8.988a.686.686,0,0,1-.411.8,28.419,28.419,0,0,1-26.462-8.3.681.681,0,0,1,.125-.883c2.394-2.515,4-6.712,1.854-9.989-1.709-2.621-13.336-8.655-17.7-6.383a3.022,3.022,0,0,0-1.017.841C129,41.964,128.9,48.19,129.283,51.3a10.461,10.461,0,0,0,1.11,2.992l.059.09c5.514,7.489,15.406,13.9,27.139,17.6,11.083,3.493,22.195,4.052,30.814,1.6.552-.157,1.092-.329,1.624-.509l.058-.019.055-.027a12,12,0,0,0,2.933-2.2c2.421-2.854,5.19-7.614,5.022-11.635C198.046,57.988,197.264,56.892,195.766,55.926Zm-3.884,13.881a10.064,10.064,0,0,1-2.424,1.8c-.345.118-.7.231-1.053.333-8.385,2.519-19.359,2.006-30.345-1.455-11.4-3.59-20.991-9.785-26.317-16.993a8.962,8.962,0,0,1-.908-2.39c-.328-2.671-.293-8.581,2.183-11.827a1.454,1.454,0,0,1,.492-.4c3.313-1.724,14.213,3.622,15.668,5.847,1.6,2.452.367,5.91-1.678,8.057a2.216,2.216,0,0,0-.168,3,29.967,29.967,0,0,0,28.019,8.784,1.8,1.8,0,0,0,.445-.168,2.27,2.27,0,0,0,1.131-2.382c-.415-2.765.4-6.41,3.242-7.556,1.134-.454,4.7-.29,8.236.446a20.237,20.237,0,0,1,6.512,2.343c.72.461,1.584,1.188,1.619,2.01C196.673,62.591,194.3,66.959,191.882,69.807Z"/><path d="M1271.976,221.594a34.734,34.734,0,0,0,8.782,32.283,4.279,4.279,0,0,0-.033,1.365,4.667,4.667,0,0,0,2.437,3.378l8.979,5.138a5.108,5.108,0,0,0,2.522.707,4.21,4.21,0,0,0,2.779-1.039,34.322,34.322,0,0,0,8.13.978,34.773,34.773,0,0,0,24.154-9.761,4.229,4.229,0,0,0,.777.077h0a4.566,4.566,0,0,0,3.97-2.479l5.139-8.979a4.668,4.668,0,0,0,.39-4.146,4.251,4.251,0,0,0-.721-1.161,34.72,34.72,0,0,0-8.782-32.283,4.285,4.285,0,0,0,.033-1.366,4.664,4.664,0,0,0-2.438-3.377l-8.977-5.139a5.118,5.118,0,0,0-2.523-.706,4.209,4.209,0,0,0-2.779,1.038,34.719,34.719,0,0,0-32.29,8.783,4.26,4.26,0,0,0-.771-.076,4.571,4.571,0,0,0-3.971,2.478l-5.137,8.979a4.664,4.664,0,0,0-.391,4.147A4.227,4.227,0,0,0,1271.976,221.594Zm1.352,1.072a5.575,5.575,0,0,0,1.116.444l14.085,3.937a3.557,3.557,0,0,0,.439.09,16.87,16.87,0,0,0,3.631,13.354,3.351,3.351,0,0,0-.331.3l-10.15,10.531a5.6,5.6,0,0,0-.735.945A33.178,33.178,0,0,1,1273.328,222.666Zm21.981-1.4a4.083,4.083,0,0,0,.331-3.083,15.314,15.314,0,0,1,12.728-3.462,4.087,4.087,0,0,0,1.849,2.49l3.919,2.242a3.875,3.875,0,0,0,1.925.491,4.338,4.338,0,0,0,1.16-.162,15.461,15.461,0,0,1,3.464,12.731,4.109,4.109,0,0,0-2.493,1.849l-2.242,3.919a4.085,4.085,0,0,0-.332,3.085,15.252,15.252,0,0,1-12.728,3.464,4.079,4.079,0,0,0-1.849-2.492l-3.92-2.244a3.877,3.877,0,0,0-1.923-.49,4.325,4.325,0,0,0-1.159.162,15.3,15.3,0,0,1-3.464-12.731,4.1,4.1,0,0,0,2.489-1.848Zm-.646,41.634a3.511,3.511,0,0,1-1.745-.5l-8.979-5.139a2.927,2.927,0,0,1-.7-4.857l10.151-10.531a2.527,2.527,0,0,1,1.8-.7,2.314,2.314,0,0,1,1.146.283l3.92,2.243a2.591,2.591,0,0,1,1.131,2.757l-3.938,14.086A2.939,2.939,0,0,1,1294.663,262.9Zm3.856-.826a5.556,5.556,0,0,0,.445-1.115l3.938-14.086a3.655,3.655,0,0,0,.089-.438,16.743,16.743,0,0,0,13.354-3.633,3.488,3.488,0,0,0,.3.333l10.53,10.15a5.45,5.45,0,0,0,.951.732A33.2,33.2,0,0,1,1298.519,262.074Zm39.735-19.589-5.139,8.98a3.049,3.049,0,0,1-2.612,1.691,3.24,3.24,0,0,1-2.244-1l-10.53-10.151a2.589,2.589,0,0,1-.422-2.95l2.243-3.919a2.612,2.612,0,0,1,2.2-1.2,2.107,2.107,0,0,1,.558.073l14.085,3.937a2.927,2.927,0,0,1,1.862,4.54Zm-.329-5.6a5.558,5.558,0,0,0-1.112-.442l-14.086-3.937a3.537,3.537,0,0,0-.44-.091,17.052,17.052,0,0,0-3.634-13.35,3.46,3.46,0,0,0,.337-.3l10.148-10.53a5.634,5.634,0,0,0,.737-.948A33.165,33.165,0,0,1,1337.925,236.881Zm-19.585-39.733,8.978,5.139a2.926,2.926,0,0,1,.694,4.857l-10.149,10.53a2.527,2.527,0,0,1-1.8.706,2.309,2.309,0,0,1-1.148-.284l-3.919-2.242a2.59,2.59,0,0,1-1.131-2.758l3.937-14.086a2.939,2.939,0,0,1,2.794-2.362A3.513,3.513,0,0,1,1318.34,197.148Zm-5.6.329a5.468,5.468,0,0,0-.444,1.112l-3.938,14.086a3.584,3.584,0,0,0-.089.436,16.893,16.893,0,0,0-13.353,3.636,3.5,3.5,0,0,0-.3-.333l-10.531-10.15a5.55,5.55,0,0,0-.952-.733A33.163,33.163,0,0,1,1312.738,197.477ZM1273,217.063l5.137-8.978a3.049,3.049,0,0,1,2.613-1.692,3.244,3.244,0,0,1,2.245,1l10.53,10.15a2.588,2.588,0,0,1,.422,2.949l-2.244,3.921a2.611,2.611,0,0,1-2.2,1.2,2.074,2.074,0,0,1-.559-.074l-14.086-3.937a2.925,2.925,0,0,1-1.86-4.54Z"/><path d="M516.59,79.7a34.733,34.733,0,0,0,26.219,20.782,4.284,4.284,0,0,0,.783,1.119,4.67,4.67,0,0,0,3.965,1.274l10.277-1.189a5.119,5.119,0,0,0,2.45-.927,4.215,4.215,0,0,0,1.621-2.485,34.358,34.358,0,0,0,7.126-4.034,34.768,34.768,0,0,0,13.656-22.185,4.3,4.3,0,0,0,.671-.4h0a4.567,4.567,0,0,0,1.726-4.35L583.9,57.024a4.663,4.663,0,0,0-2.145-3.569,4.257,4.257,0,0,0-1.269-.508,34.72,34.72,0,0,0-26.219-20.782,4.267,4.267,0,0,0-.783-1.119,4.664,4.664,0,0,0-3.965-1.273L539.238,30.96a5.121,5.121,0,0,0-2.449.928,4.207,4.207,0,0,0-1.622,2.484A34.719,34.719,0,0,0,514.38,60.6a4.243,4.243,0,0,0-.666.4,4.571,4.571,0,0,0-1.728,4.35l1.19,10.276a4.663,4.663,0,0,0,2.145,3.571A4.244,4.244,0,0,0,516.59,79.7Zm1.725.061a5.61,5.61,0,0,0,1.161-.3l13.675-5.185a3.556,3.556,0,0,0,.407-.188,16.872,16.872,0,0,0,10.844,8.6,3.49,3.49,0,0,0-.089.437l-1.927,14.5a5.682,5.682,0,0,0-.031,1.2A33.18,33.18,0,0,1,518.315,79.757Zm16.866-14.164a4.082,4.082,0,0,0-1.562-2.679,15.317,15.317,0,0,1,8.194-10.337,4.086,4.086,0,0,0,2.965.908l4.486-.519a3.862,3.862,0,0,0,1.84-.747,4.3,4.3,0,0,0,.838-.818,15.458,15.458,0,0,1,10.34,8.195,4.108,4.108,0,0,0-.91,2.967l.52,4.486a4.083,4.083,0,0,0,1.562,2.68,15.254,15.254,0,0,1-8.193,10.338,4.087,4.087,0,0,0-2.966-.91l-4.487.519a3.873,3.873,0,0,0-1.839.747,4.356,4.356,0,0,0-.838.817,15.3,15.3,0,0,1-10.34-8.195,4.1,4.1,0,0,0,.908-2.965Zm24.175,33.9a3.508,3.508,0,0,1-1.7.633l-10.277,1.189a2.927,2.927,0,0,1-3.441-3.5l1.926-14.5a2.532,2.532,0,0,1,1.034-1.637,2.317,2.317,0,0,1,1.091-.452l4.486-.519a2.59,2.59,0,0,1,2.546,1.549L560.2,95.936A2.937,2.937,0,0,1,559.356,99.5Zm2.614-2.952a5.521,5.521,0,0,0-.3-1.162l-5.184-13.676a3.742,3.742,0,0,0-.189-.406,16.741,16.741,0,0,0,8.6-10.845,3.606,3.606,0,0,0,.437.091l14.5,1.926a5.5,5.5,0,0,0,1.2.026A33.2,33.2,0,0,1,561.97,96.543ZM582.342,57.2l1.189,10.277a3.049,3.049,0,0,1-1.1,2.911,3.238,3.238,0,0,1-2.4.528l-14.5-1.926a2.587,2.587,0,0,1-2.09-2.125l-.519-4.486a2.614,2.614,0,0,1,1.056-2.273,2.087,2.087,0,0,1,.493-.272l13.676-5.185a2.927,2.927,0,0,1,4.191,2.551Zm-3.589-4.318a5.664,5.664,0,0,0-1.158.3L563.92,58.375a3.488,3.488,0,0,0-.408.189,17.052,17.052,0,0,0-10.844-8.593,3.276,3.276,0,0,0,.092-.442l1.925-14.5a5.579,5.579,0,0,0,.031-1.2A33.164,33.164,0,0,1,578.753,52.886ZM539.418,32.514l10.276-1.188a2.926,2.926,0,0,1,3.44,3.5l-1.924,14.5a2.532,2.532,0,0,1-1.033,1.637,2.313,2.313,0,0,1-1.093.452l-4.485.519a2.587,2.587,0,0,1-2.546-1.549l-5.185-13.676a2.939,2.939,0,0,1,.849-3.559A3.5,3.5,0,0,1,539.418,32.514ZM535.1,36.1a5.432,5.432,0,0,0,.3,1.159l5.185,13.675a3.52,3.52,0,0,0,.187.4,16.9,16.9,0,0,0-8.594,10.848,3.678,3.678,0,0,0-.439-.091l-14.5-1.925a5.51,5.51,0,0,0-1.2-.025A33.161,33.161,0,0,1,535.1,36.1ZM514.73,75.438l-1.189-10.275a3.049,3.049,0,0,1,1.1-2.912,3.237,3.237,0,0,1,2.4-.528l14.5,1.925a2.589,2.589,0,0,1,2.088,2.124l.519,4.488a2.61,2.61,0,0,1-1.056,2.273,2.084,2.084,0,0,1-.493.272L518.921,77.99a2.925,2.925,0,0,1-4.191-2.552Z"/><path d="M344.638,242.653a.938.938,0,0,0-1.064-.455l-10.168,1.733a2.5,2.5,0,0,0-1.241.649l-.5.51a1.267,1.267,0,0,0,.018,1.789l3.8,3.719-1.992,2.019a.391.391,0,0,0,0,.553l.556.55a.392.392,0,0,0,.553,0l2-2.023,1.271,1.244a.391.391,0,0,0,.553-.005l.547-.559a.391.391,0,0,0-.006-.553l-1.266-1.241,6.7-6.8A.937.937,0,0,0,344.638,242.653Zm-11.5,3.17.144-.148a1.023,1.023,0,0,1,.388-.2l7.865-1.341c.213-.036.263.059.111.213l-5.068,5.139-3.306-3.239C333.03,246.018,333.016,245.936,333.138,245.823Z"/><path d="M332.811,240.017c2.218-.861,3.426-2.718,3.077-4.731-.358-2.068-2.456-4.2-6.345-4.436a.382.382,0,0,0-.4.375l-.021.781a.4.4,0,0,0,.38.409c3,.2,4.6,1.692,4.846,3.139.219,1.265-.586,2.416-2.1,3-.664.258-4.588.377-9.539.289a1.59,1.59,0,0,0-1.1.448l-.469.479a1.091,1.091,0,0,0,.016,1.542l5.97,5.849a.391.391,0,0,0,.553-.006l.547-.558a.391.391,0,0,0,0-.553l-5.1-5s-.183-.184-.357-.352c-.01-.011-.076-.07.052-.2a.283.283,0,0,1,.211-.079c.122,0,.246,0,.373.006C326.709,240.47,331.668,240.461,332.811,240.017Z"/><path d="M346.867,254.215l2.671-2.726a.391.391,0,0,0-.006-.553l-.558-.547a.393.393,0,0,0-.554,0l-8.4,8.575a.391.391,0,0,0,.006.553l.559.547a.391.391,0,0,0,.553,0l3.715-3.792a2.4,2.4,0,0,1,3.181,3.577l-3.473,3.544a.391.391,0,0,0,.006.553l.559.548a.391.391,0,0,0,.553-.006l3.473-3.544a3.993,3.993,0,0,0-.025-5.639A3.922,3.922,0,0,0,346.867,254.215Z"/><rect x="352.781" y="227.671" width="4.171" height="1.564" rx="0.391" transform="translate(-56.671 322.036) rotate(-45.583)"/><rect x="315.576" y="265.643" width="4.171" height="1.564" rx="0.391" transform="translate(-94.951 306.946) rotate(-45.596)"/><rect x="316.496" y="226.751" width="1.564" height="4.171" rx="0.391" transform="translate(-68.223 295.326) rotate(-45.587)"/><rect x="354.468" y="263.956" width="1.564" height="4.171" rx="0.391" transform="translate(-83.406 333.581) rotate(-45.582)"/><path d="M310.13,238.736h.782a.391.391,0,0,1,.391.391v3.389a.391.391,0,0,1-.391.391h-.782a.391.391,0,0,1-.391-.391v-3.388a.392.392,0,0,1,.392-.392Z" transform="translate(-0.03 481.605) rotate(-75.583)"/><rect x="361.226" y="251.971" width="1.565" height="4.171" rx="0.391" transform="translate(25.814 541.403) rotate(-75.582)"/><rect x="340.796" y="220.914" width="4.171" height="1.564" rx="0.391" transform="translate(42.868 498.66) rotate(-75.598)"/><rect x="327.561" y="272.402" width="4.172" height="1.564" rx="0.391" transform="translate(-16.93 524.542) rotate(-75.601)"/><rect x="328.341" y="219.75" width="1.565" height="4.171" rx="0.391" transform="translate(-47.503 96.592) rotate(-15.587)"/><rect x="342.623" y="270.957" width="1.565" height="4.171" rx="0.391" transform="translate(-60.712 102.255) rotate(-15.578)"/><rect x="308.576" y="253.798" width="4.171" height="1.565" rx="0.391" transform="matrix(0.963, -0.269, 0.269, 0.963, -57.039, 92.968)"/><rect x="359.782" y="239.516" width="4.171" height="1.565" rx="0.391" transform="translate(-51.301 106.196) rotate(-15.604)"/><path d="M358.547,224.7A31.639,31.639,0,1,0,359,269.438,31.673,31.673,0,0,0,358.547,224.7Zm-43.19,44.08a30.074,30.074,0,1,1,42.529-.433A30.107,30.107,0,0,1,315.357,268.777Z"/><path d="M362.718,220.44a37.6,37.6,0,1,0,.543,53.17A37.641,37.641,0,0,0,362.718,220.44Zm-51.533,52.6a36.035,36.035,0,1,1,50.958-.52A36.076,36.076,0,0,1,311.185,273.035Z"/><path d="M1236.957,107.173a3.585,3.585,0,0,0-.864-2.033,3.637,3.637,0,0,0-3.066-1.229l-17.721,1.686a3.113,3.113,0,0,0-1.983,1.2,4.232,4.232,0,0,1-6.242.583,3.1,3.1,0,0,0-2.17-.814l-1.557.149a3.609,3.609,0,0,0-3.262,3.93l.063.657c-.618.059-1.365.126-2.2.2l2.073-14.311.711-4.9a1.943,1.943,0,0,1,1.053-1.256,12.665,12.665,0,0,0,4-20.5,1.147,1.147,0,0,0-1.177-.34,1.165,1.165,0,0,0-.759.981l-1.282,8.788a.588.588,0,0,1-.266.337l-5.8,2.3a.6.6,0,0,1-.427-.063l-4.92-3.895a.654.654,0,0,1-.137-.375l1.283-8.777a1.2,1.2,0,0,0-.254-.985,1.1,1.1,0,0,0-1.416-.184,12.665,12.665,0,0,0-3.434,19.391,12.98,12.98,0,0,0,1.424,1.4,1.642,1.642,0,0,1,.164.16,1.909,1.909,0,0,1,.485,1.342l-.954,6.566L1186.1,112.52c-4.583.442-8.612.884-8.639.888a2.224,2.224,0,0,1-1.424-.493l-.359-.337a3.289,3.289,0,0,0-2.711-.754l-11.494,2.475a1.869,1.869,0,0,0-1.447,1.975l.168,1.8a1.8,1.8,0,0,0,.442,1.029,1.844,1.844,0,0,0,1.345.645l11.753.305a3.27,3.27,0,0,0,2.522-1.243l.294-.4a2.21,2.21,0,0,1,1.318-.743c.039,0,3.578-.387,7.6-.783l-3.536,24.386a4.333,4.333,0,0,0,1.005,3.359,6.335,6.335,0,0,0,4.037,1.9c5.714.814,6.394-3.41,6.421-3.59l3.927-27.08c1.263-.114,2.362-.215,3.231-.3l.062.661a3.585,3.585,0,0,0,.865,2.029,3.629,3.629,0,0,0,2.729,1.244,3.218,3.218,0,0,0,.337-.016l1.556-.144a3.1,3.1,0,0,0,1.983-1.2,4.216,4.216,0,0,1,6.242-.583,3.129,3.129,0,0,0,2.175.81l17.717-1.686a3.616,3.616,0,0,0,3.261-3.93Zm-59.248,8.937a3.742,3.742,0,0,0-2.424,1.377l-.294.4a1.744,1.744,0,0,1-1.216.6l-11.757-.3a.306.306,0,0,1-.269-.254l-.169-1.8a.3.3,0,0,1,.219-.3l11.5-2.479a1.755,1.755,0,0,1,1.31.364l.36.34a3.761,3.761,0,0,0,2.651.907c.04,0,3.837-.422,8.253-.852l-.168,1.177C1181.511,115.7,1177.737,116.106,1177.709,116.11Zm14.139,26.607c-.043.293-.536,2.851-4.655,2.264a4.868,4.868,0,0,1-3.074-1.376,2.754,2.754,0,0,1-.637-2.109l6.422-44.3.919-6.339a3.415,3.415,0,0,0-.853-2.593,2.7,2.7,0,0,0-.34-.337,11.079,11.079,0,0,1-3.852-10.106,11,11,0,0,1,4.529-7.431c.176-.125.3-.047.266.165l-1.1,7.5a2.125,2.125,0,0,0,.735,1.85l4.9,3.876a2.1,2.1,0,0,0,1.968.289l5.8-2.3a2.109,2.109,0,0,0,1.239-1.564l1.1-7.513c.031-.211.172-.25.3-.082a11.1,11.1,0,0,1-4.353,17,3.455,3.455,0,0,0-1.979,2.468l-.744,5.119Zm5.706-28.449.168-1.169c.993-.09,1.866-.172,2.577-.239l.11,1.146C1199.631,114.08,1198.661,114.166,1197.554,114.268Zm36.521.856-17.721,1.686a1.634,1.634,0,0,1-.97-.407,5.783,5.783,0,0,0-8.549.8,1.608,1.608,0,0,1-.88.579l-1.557.145a2.058,2.058,0,0,1-1.736-.7,2.027,2.027,0,0,1-.489-1.15l-.52-5.577a2.046,2.046,0,0,1,1.846-2.23l1.556-.148a1.607,1.607,0,0,1,.97.411,5.792,5.792,0,0,0,8.55-.8,1.6,1.6,0,0,1,.88-.583l17.716-1.686a2.076,2.076,0,0,1,1.741.7,2.016,2.016,0,0,1,.489,1.15l.52,5.577A2.049,2.049,0,0,1,1234.075,115.124Z"/><rect x="1218.026" y="108.505" width="12.99" height="1.564" rx="0.391" transform="translate(-4.866 110.756) rotate(-5.169)"/><rect x="1218.439" y="112.049" width="12.99" height="1.564" rx="0.391" transform="translate(-5.184 110.724) rotate(-5.165)"/><path d="M1595.084,89.881a.394.394,0,0,0-.555-.024,28.138,28.138,0,0,1-44.66-32.066c.274-.634.571-1.259.892-1.87.1-.191.226-.176.277.032l1.209,5.018a.391.391,0,0,0,.473.289l.759-.184a.389.389,0,0,0,.289-.469l-1.873-7.764a.325.325,0,0,0-.454-.23l-7.337,3.093a.39.39,0,0,0-.207.513l.305.72a.392.392,0,0,0,.512.21l4.31-1.818c.2-.086.282,0,.184.2-.278.54-.536,1.092-.775,1.647A29.7,29.7,0,0,0,1595.592,91a.388.388,0,0,0,.024-.551Z"/><path d="M1607.359,82.7l-.256-.74a.391.391,0,0,0-.5-.242l-4.62,1.6c-.2.07-.284-.025-.181-.215.414-.768.8-1.558,1.149-2.365a29.7,29.7,0,0,0-44.93-35.654.387.387,0,0,0-.076.546l.473.623a.4.4,0,0,0,.55.077,28.135,28.135,0,0,1,42.546,33.787c-.333.771-.7,1.526-1.1,2.258-.1.19-.218.17-.255-.043l-.843-4.893a.39.39,0,0,0-.451-.319l-.771.132a.391.391,0,0,0-.319.452l1.351,7.846a.321.321,0,0,0,.436.258l7.549-2.608A.392.392,0,0,0,1607.359,82.7Z"/><path d="M1587.626,64.107a.967.967,0,0,0-1.189-.031l-10.27,6.1a2.816,2.816,0,0,0-1.021,1.158l-.329.759a1.343,1.343,0,0,0,.7,1.764l5.765,2.491-1.388,3.179a.393.393,0,0,0,.2.517l.716.313a.392.392,0,0,0,.516-.2l1.388-3.183,2.058.887a.391.391,0,0,0,.516-.2l.309-.716a.391.391,0,0,0-.2-.516l-2.053-.888,4.466-10.247A.965.965,0,0,0,1587.626,64.107Zm-2.151,2.624-3.571,8.183-5.2-2.249a.352.352,0,0,1-.238-.431l.117-.277a1.332,1.332,0,0,1,.387-.438l8.327-4.944C1585.478,66.462,1585.561,66.536,1585.475,66.731Z"/><path d="M1562.464,69.142a1.705,1.705,0,0,0-.927.873l-.308.714a1.139,1.139,0,0,0,.593,1.5l8.942,3.864a.391.391,0,0,0,.514-.2l.31-.718a.391.391,0,0,0-.2-.514l-8.192-3.54c-.2-.086-.362-.148-.3-.3l.046-.109a.28.28,0,0,1,.14-.119c.168-.067.281-.1.427-.156,3.581-1.313,9.171-3.458,10.24-4.43,1.993-1.812,2.517-4.26,1.334-6.237-1.227-2.053-4.349-3.455-8.612-2.083a.381.381,0,0,0-.24.493l.261.738a.4.4,0,0,0,.5.244c3.424-1.088,5.845-.1,6.748,1.411.8,1.33.395,2.968-1.045,4.277C1572.063,65.414,1567.95,67.144,1562.464,69.142Z"/><path d="M1509.331,258.3c.2-.086.368-.134.379-.108l.021.047A7.219,7.219,0,0,0,1519.21,262l.134-.058a7.217,7.217,0,0,0,3.756-9.479l-6.561-15.174a7.216,7.216,0,0,0-9.478-3.757l-.134.058a7.213,7.213,0,0,0-3.994,8.824.43.43,0,0,1-.228.525l-.5.214c-.163.071-.32.148-.475.23a.38.38,0,0,1-.523-.152c-.383-.732-.742-1.482-1.071-2.241a31.819,31.819,0,0,1-1.926-21.1.391.391,0,0,1,.482-.272l1.2.327a3.355,3.355,0,0,0,2.241-.164,3.689,3.689,0,0,0,1.97-2.08,26.3,26.3,0,0,1,34.634-14.973,3.689,3.689,0,0,0,2.865-.01,3.364,3.364,0,0,0,1.655-1.521l.58-1.095a.391.391,0,0,1,.529-.164,31.82,31.82,0,0,1,14.051,15.856c.327.759.627,1.534.9,2.315a.38.38,0,0,1-.247.486c-.166.057-.33.118-.493.188l-.5.214a.428.428,0,0,1-.538-.191,7.214,7.214,0,0,0-9.166-3.137l-.133.058a7.219,7.219,0,0,0-3.758,9.478l6.561,15.176a7.219,7.219,0,0,0,8.511,4.091.427.427,0,0,1,.513.253c3.08,8.37,0,14.608-9.391,19.021a.536.536,0,0,1-.6-.139,4.956,4.956,0,1,0,1.085,2.066.479.479,0,0,1,.244-.541c10.123-4.788,13.516-11.858,10.1-21.04a.494.494,0,0,1,.195-.567,7.221,7.221,0,0,0,2.719-8.925s-.008-.021-.02-.047.141-.116.339-.2l.481-.208a7.22,7.22,0,0,0,3.757-9.48l-.918-2.122a7.211,7.211,0,0,0-6.663-4.34.567.567,0,0,1-.514-.359c-.305-.9-.647-1.8-1.025-2.668a33.35,33.35,0,0,0-14.754-16.618c-.19-.1-.3-.273-.237-.387l.109-.206a3.319,3.319,0,0,0,.212-2.63,3.1,3.1,0,0,0-1.694-1.847,36.663,36.663,0,0,0-49.373,21.346,3.109,3.109,0,0,0,.185,2.5,3.32,3.32,0,0,0,2.061,1.648l.225.061c.124.034.176.23.12.438a33.355,33.355,0,0,0,2,22.133c.378.874.8,1.735,1.242,2.573a.566.566,0,0,1-.091.621,7.212,7.212,0,0,0-1.4,7.828l.917,2.121a7.218,7.218,0,0,0,9.479,3.758Zm38.37,11.69a3.4,3.4,0,1,1,1.769-4.464A3.4,3.4,0,0,1,1547.7,269.989Zm15.278-34.772a5.651,5.651,0,0,1-2.942,7.423l-.133.058a5.653,5.653,0,0,1-7.423-2.942l-6.56-15.175a5.65,5.65,0,0,1,2.942-7.421l.133-.058a5.652,5.652,0,0,1,7.423,2.94Zm4.556-9.937a5.651,5.651,0,0,1-2.941,7.422l-.481.209a.392.392,0,0,1-.515-.2l-5.087-11.769a.392.392,0,0,1,.2-.515l.482-.208a5.652,5.652,0,0,1,7.422,2.943Zm-71.944-9.935a35.1,35.1,0,0,1,47.263-20.434,1.556,1.556,0,0,1,.849.929,1.746,1.746,0,0,1-.115,1.386l-1.714,3.235a1.8,1.8,0,0,1-.892.817,2.114,2.114,0,0,1-1.643,0,27.866,27.866,0,0,0-36.7,15.866,2.112,2.112,0,0,1-1.127,1.2,1.806,1.806,0,0,1-1.208.091l-3.529-.967a1.748,1.748,0,0,1-1.09-.866A1.564,1.564,0,0,1,1495.591,215.345Zm9.015,27.1a5.652,5.652,0,0,1,2.942-7.422l.134-.058a5.652,5.652,0,0,1,7.422,2.941l6.56,15.175a5.652,5.652,0,0,1-2.941,7.422l-.134.058a5.652,5.652,0,0,1-7.423-2.942Zm-1.776,2.141.481-.208a.391.391,0,0,1,.515.2l5.088,11.769a.392.392,0,0,1-.2.514l-.482.208a5.651,5.651,0,0,1-7.422-2.942l-.917-2.122A5.652,5.652,0,0,1,1502.83,244.584Z"/><path d="M1441.212,154.829a3.594,3.594,0,1,0,4.934,1.221A3.6,3.6,0,0,0,1441.212,154.829Zm2.9,4.815a2.029,2.029,0,1,1,.691-2.786A2.032,2.032,0,0,1,1444.116,159.644Z"/><path d="M1430.538,137.083c-3.394,2.047-5.959,6.166-4.042,10.755.448,1.073.923,1.641,1.541,1.843a2.109,2.109,0,0,0,1.777-.373h0s1.1-.677,1.885-1.151c.257-.155.48-.288.646-.383.087-.05.168-.1.239-.139,1.22-.736.895-1.647.4-3.027a1.575,1.575,0,0,1,.836-1.827,1.914,1.914,0,0,1,2.17-.033c.642.565,1.063,1.475-.193,4.281-1.041,2.325-.864,3.759.823,6.667a1.651,1.651,0,0,0,.968.852,1.8,1.8,0,0,0,1.361-.295c.478-.279.9-.529,1.428-.847.367-.22.789-.471,1.322-.788l.047-.028a1.537,1.537,0,0,0,.682-2.421c-.264-.466-.6-1.046.2-2.863,2.473-5.665.3-8.743-1.958-10.327A9.329,9.329,0,0,0,1430.538,137.083Zm10.656,9.6c-.753,1.728-.75,2.793-.4,3.694a3.477,3.477,0,0,0,.162.358.42.42,0,0,1-.15.595c-.512.311-.885.528-1.233.736-.476.285-.865.51-1.282.761a.324.324,0,0,1-.446-.137c-.119-.188-.211-.377-.3-.552-1.077-2.04-1.008-2.922-.317-4.468.94-2.1,1.652-4.465-.2-6.095a3.4,3.4,0,0,0-4.011-.132,3.053,3.053,0,0,0-1.5,3.694c.057.162.158.443.237.7a.547.547,0,0,1-.212.6c-.672.423-2.015,1.226-2.557,1.55-.343.206-.653.19-1.043-.747-1.66-3.986.794-7.237,3.406-8.812a7.774,7.774,0,0,1,8.426-.165C1442.4,140.1,1442.864,142.856,1441.194,146.68Z"/><path d="M1727.907,174.25l-6.539-8.988a3.02,3.02,0,0,0-.278-3.078l-4.348-5.972a4.561,4.561,0,0,0,.833-.485,4.7,4.7,0,0,0-5.531-7.6,4.777,4.777,0,0,0-.716.645l-4.348-5.972a3.006,3.006,0,0,0-2.844-1.208l-6.48-8.91a1.427,1.427,0,0,0-1.983-.312l-41.195,29.986-15.918,11.588a1.419,1.419,0,0,0-.313,1.979l16.231,22.3L1668.5,217.49a1.419,1.419,0,0,0,1.983.313l57.112-41.57A1.422,1.422,0,0,0,1727.907,174.25Zm-22.191-30.529,4.619,6.343a1.212,1.212,0,0,0,.962.524,1.271,1.271,0,0,0,1.009-.539,2.994,2.994,0,0,1,.661-.654,3.134,3.134,0,0,1,3.688,5.069,3.213,3.213,0,0,1-.825.426,1.259,1.259,0,0,0-.825.794,1.2,1.2,0,0,0,.2,1.076l4.615,6.344a1.447,1.447,0,0,1-.317,2.021l-4.489,3.266a1.444,1.444,0,0,1-2.018-.317l-14.111-19.383a1.449,1.449,0,0,1,.32-2.022l4.49-3.265A1.443,1.443,0,0,1,1705.716,143.721Zm20.525,31.561L1670,216.223a.393.393,0,0,1-.544-.086l-14.975-20.572-14.651-20.126a.4.4,0,0,1,.086-.548l14.565-10.6,41.684-30.338a.383.383,0,0,1,.543.086l5.957,8.182-4.377,3.183a3.013,3.013,0,0,0-.661,4.2l14.108,19.384a3.021,3.021,0,0,0,4.208.664l4.372-3.187,6.015,8.264A.388.388,0,0,1,1726.241,175.282Z"/><path d="M1681.245,162.083a3.013,3.013,0,0,0,4.2.661l4.725-3.438a3.012,3.012,0,0,0,.661-4.2l-3.438-4.725a3.012,3.012,0,0,0-4.2-.661l-4.725,3.438a3.012,3.012,0,0,0-.661,4.2Zm-1.858-7.666,4.725-3.438a1.45,1.45,0,0,1,2.022.321l3.438,4.721a1.45,1.45,0,0,1-.321,2.022l-4.721,3.437a1.449,1.449,0,0,1-2.022-.316l-3.438-4.725A1.453,1.453,0,0,1,1679.387,154.417Z"/><path d="M1666.833,172.572a3.012,3.012,0,0,0,4.2.661l4.725-3.438a3.017,3.017,0,0,0,.665-4.2l-3.438-4.725a3.019,3.019,0,0,0-4.209-.661l-4.724,3.438a3.013,3.013,0,0,0-.661,4.205Zm-1.854-7.666,4.725-3.437a1.448,1.448,0,0,1,2.018.316l3.437,4.725a1.448,1.448,0,0,1-.316,2.022l-4.725,3.438a1.448,1.448,0,0,1-2.018-.317l-3.442-4.725A1.45,1.45,0,0,1,1664.979,164.906Z"/><path d="M1662.014,176.08l-3.437-4.724a3.009,3.009,0,0,0-4.1-.732c-.035.02-.07.047-.105.071l-4.725,3.438a3.015,3.015,0,0,0-.665,4.2l3.442,4.724a3.011,3.011,0,0,0,4.2.661l4.725-3.437A3.013,3.013,0,0,0,1662.014,176.08Zm-1.583,2.941-4.725,3.438a1.453,1.453,0,0,1-2.018-.317l-3.438-4.724a1.449,1.449,0,0,1,.317-2.022l3.911-2.847.814-.591a1.448,1.448,0,0,1,2.018.317l3.441,4.724A1.453,1.453,0,0,1,1660.431,179.021Z"/><path d="M1681.387,158.023a1.4,1.4,0,0,0,1.261.516l5.281-.41a.391.391,0,0,0,.359-.42l-.06-.78a.392.392,0,0,0-.42-.36l-4.639.359a.234.234,0,0,1-.258-.338l.985-2.753a.393.393,0,0,0-.237-.5l-.737-.264a.393.393,0,0,0-.5.237l-1.2,3.361a1.413,1.413,0,0,0,.148,1.329Z"/><path d="M1666.962,168.433a1.409,1.409,0,0,0,1.261.516l5.281-.41a.391.391,0,0,0,.359-.42l-.06-.78a.392.392,0,0,0-.42-.36l-4.638.359a.235.235,0,0,1-.259-.338l.985-2.754a.39.39,0,0,0-.237-.5l-.736-.264a.392.392,0,0,0-.5.237l-1.2,3.361a1.408,1.408,0,0,0,.149,1.328Z"/><rect x="1697.586" y="162.936" width="1.564" height="23.534" rx="0.391" transform="translate(222.514 1033.092) rotate(-36.056)"/><rect x="1682.918" y="173.613" width="1.565" height="23.534" rx="0.391" transform="translate(213.42 1026.504) rotate(-36.056)"/><rect x="1668.25" y="184.289" width="1.564" height="23.534" rx="0.391" transform="translate(204.237 1019.756) rotate(-36.05)"/><path d="M1408.364,49.2a30.833,30.833,0,1,0-19.058,39.224A30.875,30.875,0,0,0,1408.364,49.2Zm-19.57,37.745a29.271,29.271,0,1,1,18.092-37.233A29.314,29.314,0,0,1,1388.794,86.943Z"/><path d="M1394.292,48.431a2.561,2.561,0,0,0-3.261-1.583l-6.563,2.268a.392.392,0,0,1-.5-.243l-2.268-6.558a2.567,2.567,0,0,0-3.262-1.588l-10.067,3.484a2.564,2.564,0,0,0-1.584,3.262l2.268,6.563a.387.387,0,0,1-.242.5l-6.559,2.269a2.563,2.563,0,0,0-1.584,3.262l3.481,10.067a2.568,2.568,0,0,0,3.262,1.588l6.563-2.273a.391.391,0,0,1,.5.243l2.269,6.559a2.568,2.568,0,0,0,3.261,1.587l10.067-3.484a2.563,2.563,0,0,0,1.585-3.262l-2.269-6.563a.391.391,0,0,1,.242-.5l6.563-2.269a2.569,2.569,0,0,0,1.584-3.261Zm1.389,11.851-7,2.421a1.5,1.5,0,0,0-.923,1.9l2.417,7a1,1,0,0,1-.614,1.272l-10.071,3.48a1,1,0,0,1-1.271-.614l-2.421-7a1.5,1.5,0,0,0-1.9-.927l-7,2.421a1,1,0,0,1-1.271-.618l-3.485-10.067a1,1,0,0,1,.618-1.271l7-2.42a1.5,1.5,0,0,0,.927-1.9l-2.422-7a1,1,0,0,1,.619-1.271l10.066-3.485a1,1,0,0,1,1.272.618l2.42,7a1.5,1.5,0,0,0,1.9.927l7-2.425a1,1,0,0,1,1.271.618l3.485,10.071A1,1,0,0,1,1395.681,60.282Z"/><path d="M1102.922,216.535l-.259-.608a27.809,27.809,0,0,0-51.145,21.853l.26.608a6.133,6.133,0,0,0-1.305,6.737l.755,1.768a6.133,6.133,0,0,0,8.041,3.226l.279-.119.041.1a25.279,25.279,0,0,0,46.887-.946,17,17,0,0,0,5.348-7.035c1.678-4.476.983-9.712-2.124-16.006a6.1,6.1,0,0,0-.252-4.095l-.755-1.768A6.134,6.134,0,0,0,1102.922,216.535Zm-49.965,20.631a26.244,26.244,0,1,1,48.267-20.624l.1.241a6.1,6.1,0,0,0-.675.239l-.707.3a25.292,25.292,0,0,0-45.41,19.4l-.836.358a6.257,6.257,0,0,0-.639.322Zm29.455-28.624c-3.695,9.322-9.417,13.35-17.39,16.757a28.809,28.809,0,0,1-8.911,2.234,23.695,23.695,0,0,1,26.3-18.991Zm-23.757,40.139a4.568,4.568,0,0,1-5.988-2.4l-.756-1.768a4.569,4.569,0,0,1,2.4-5.988l.559-.239a25.448,25.448,0,0,0,1.261,3.728l2.8,6.551Zm33.522,13.3a23.759,23.759,0,0,1-31.149-12.5l-3.455-8.086a23.572,23.572,0,0,1-1.713-12.282,30.283,30.283,0,0,0,9.777-2.378c8.436-3.6,14.468-7.888,18.353-17.938a23.722,23.722,0,0,1,17.23,13.948l3.456,8.087a23.643,23.643,0,0,1,.483,17.378,49.273,49.273,0,0,1-11.425,6.274,4.249,4.249,0,1,0,.716,1.394c.162-.068.323-.135.486-.2a57.386,57.386,0,0,0,9.008-4.661A23.631,23.631,0,0,1,1092.177,261.983Zm.669-5.954a2.691,2.691,0,1,1-3.532-1.417A2.694,2.694,0,0,1,1092.846,256.029Zm17.513-14.462a13.827,13.827,0,0,1-2.938,4.574,25.167,25.167,0,0,0-1.307-15.922l-.041-.1.148-.063a6.087,6.087,0,0,0,2.609-2.13C1111.279,233.307,1111.78,237.78,1110.359,241.567Zm-2.349-18.936a4.568,4.568,0,0,1-2.4,5.988l-.149.064-2.8-6.551a25.32,25.32,0,0,0-1.823-3.488l.43-.184a4.568,4.568,0,0,1,5.988,2.4Z"/><path d="M1073.215,234.023a1.926,1.926,0,1,0-1.015,2.529A1.927,1.927,0,0,0,1073.215,234.023Z"/><path d="M1087.521,230.006a1.927,1.927,0,1,0-2.529-1.015A1.927,1.927,0,0,0,1087.521,230.006Z"/><path d="M1092.1,244.737l-.6-.506a.4.4,0,0,0-.556.041,15.856,15.856,0,0,1-11.861,4.972.4.4,0,0,0-.42.366l-.06.779a.383.383,0,0,0,.36.415,17.4,17.4,0,0,0,13.174-5.519A.384.384,0,0,0,1092.1,244.737Z"/><path d="M992.57,68.356a5.177,5.177,0,1,0-6.962-2.262A5.182,5.182,0,0,0,992.57,68.356Zm-3.99-7.832A3.613,3.613,0,1,1,987,65.383,3.618,3.618,0,0,1,988.58,60.524Z"/><path d="M996.171,70.029l-4.24,2.16a2.771,2.771,0,0,0-1.209,3.722l5.553,10.9A2.77,2.77,0,0,0,1000,88.018l4.239-2.16a2.77,2.77,0,0,0,1.21-3.721l-5.553-10.9A2.769,2.769,0,0,0,996.171,70.029Zm7.881,12.818a1.2,1.2,0,0,1-.527,1.617l-4.239,2.16a1.2,1.2,0,0,1-1.617-.525l-5.553-10.9a1.2,1.2,0,0,1,.525-1.618l4.24-2.16a1.2,1.2,0,0,1,1.617.526Z"/></g></svg>